<svg version="1.2" xmlns="http://www.w3.org/2000/svg" viewBox="0 0 42 42" width="42" height="42">
	<title>mdi_instagram</title>
	<style>
		.s0 { fill: #0086c5 } 
	</style>
	<path class="s0" d="m12.3 0.2h17.5c6.6 0 12 5.4 12 12.1v17.5c0 3.2-1.2 6.2-3.5 8.5-2.3 2.3-5.3 3.5-8.5 3.5h-17.5c-6.7 0-12.1-5.4-12.1-12v-17.5c0-3.3 1.2-6.3 3.5-8.6 2.3-2.3 5.3-3.5 8.6-3.5zm-0.5 4.1c-2 0-3.9 0.8-5.3 2.2-1.4 1.4-2.2 3.3-2.2 5.3v18.4c0 4.1 3.4 7.5 7.5 7.5h18.4c2 0 3.9-0.8 5.3-2.2 1.4-1.4 2.2-3.3 2.2-5.3v-18.4c0-4.1-3.4-7.5-7.5-7.5zm20.1 3.2c0.7 0 1.3 0.2 1.8 0.7 0.5 0.5 0.8 1.2 0.8 1.9 0 0.7-0.3 1.3-0.8 1.8-0.5 0.5-1.1 0.8-1.8 0.8-0.7 0-1.4-0.3-1.9-0.8-0.5-0.5-0.7-1.1-0.7-1.8 0-0.7 0.2-1.4 0.7-1.9 0.5-0.5 1.2-0.7 1.9-0.7zm-11 3.1c2.8 0 5.4 1.1 7.4 3 2 2 3 4.6 3 7.4 0 2.8-1 5.4-3 7.4-2 1.9-4.6 3-7.4 3-2.7 0-5.4-1.1-7.3-3-2-2-3.1-4.6-3.1-7.4 0-2.8 1.1-5.4 3.1-7.4 1.9-1.9 4.6-3 7.3-3zm0 4.2c-1.6 0-3.2 0.6-4.4 1.8-1.2 1.2-1.8 2.7-1.8 4.4 0 1.7 0.6 3.2 1.8 4.4 1.2 1.2 2.8 1.9 4.4 1.9 1.7 0 3.3-0.7 4.5-1.9 1.1-1.2 1.8-2.7 1.8-4.4 0-1.7-0.7-3.2-1.8-4.4-1.2-1.2-2.8-1.8-4.5-1.8z"/>
</svg>