<svg width="20" height="20" viewBox="0 0 20 20" fill="none" xmlns="http://www.w3.org/2000/svg">
<path d="M8.72615 2.04881C9.31306 1.10484 10.6869 1.10484 11.2739 2.04881L13.0283 4.8706C13.2348 5.20273 13.5629 5.44108 13.9425 5.53484L17.1684 6.33144C18.2475 6.59793 18.6721 7.90456 17.9557 8.75445L15.8141 11.295C15.5621 11.594 15.4368 11.9797 15.4649 12.3698L15.7042 15.6839C15.7842 16.7926 14.6727 17.6001 13.643 17.1814L10.565 15.9298C10.2027 15.7824 9.79725 15.7824 9.43497 15.9298L6.35698 17.1814C5.3273 17.6001 4.21581 16.7926 4.29584 15.6839L4.53506 12.3698C4.56322 11.9797 4.43792 11.594 4.18586 11.295L2.04433 8.75445C1.32792 7.90456 1.75248 6.59793 2.83161 6.33144L6.05745 5.53484C6.43714 5.44108 6.76519 5.20273 6.97169 4.8706L8.72615 2.04881Z" fill="#F6C002"/>
</svg>
