<svg version="1.2" xmlns="http://www.w3.org/2000/svg" viewBox="0 0 38 38" width="38" height="38">
	<title>mdi_linkedin</title>
	<style>
		.s0 { fill: #0086c5 } 
	</style>
	<path class="s0" d="m33.6 0.3c1.1 0 2.1 0.4 2.9 1.2 0.8 0.8 1.2 1.8 1.2 2.9v29.2c0 1.1-0.4 2.1-1.2 2.9-0.8 0.8-1.8 1.3-2.9 1.3h-29.2c-1.1 0-2.1-0.5-2.9-1.3-0.8-0.8-1.3-1.8-1.3-2.9v-29.2c0-1.1 0.5-2.1 1.3-2.9 0.8-0.8 1.8-1.3 2.9-1.3zm-1 32.3v-11c0-1.8-0.7-3.5-2-4.8-1.3-1.3-3-2-4.8-2-1.8 0-3.8 1.1-4.8 2.7v-2.3h-5.9v17.4h5.9v-10.2c0-1.6 1.2-2.9 2.8-2.9 0.8 0 1.6 0.3 2.1 0.8 0.6 0.6 0.9 1.3 0.9 2.1v10.2zm-24.2-20.7c0.9 0 1.8-0.3 2.4-1 0.7-0.6 1.1-1.5 1.1-2.5 0-1.9-1.6-3.5-3.5-3.5-1 0-1.9 0.4-2.5 1-0.7 0.7-1.1 1.6-1.1 2.5 0 2 1.6 3.5 3.6 3.5zm2.9 20.7v-17.4h-5.8v17.4z"/>
</svg>