<svg width="88" height="24" viewBox="0 0 88 24" fill="none" xmlns="http://www.w3.org/2000/svg">
<g clip-path="url(#clip0_40_18)">
<path d="M25.0929 0.333923H26.8324V23.846H25.0929V0.333923Z" fill="black"/>
<path d="M25.0929 0.333923H26.8324V23.846H25.0929V0.333923Z" fill="white"/>
<path d="M6.64928 11.5861H15.1408V13.1983H6.64928V11.5861Z" fill="black"/>
<path d="M6.64928 11.5861H15.1408V13.1983H6.64928V11.5861Z" fill="white"/>
<path d="M0.153259 0.333923V23.8462H1.8927V13.1984H1.895V11.586H1.89286V1.94602H19.9304V0.333923" fill="black"/>
<path d="M0.153259 0.333923V23.8462H1.8927V13.1984H1.895V11.586H1.89286V1.94602H19.9304V0.333923H0.153259Z" fill="white"/>
<path d="M79.1486 0.243103H65.2873V23.7553H67.0267V14.9885H67.0395V13.3767H67.0269V1.85566H79.015C83.2302 1.85566 86.1071 3.80365 86.1071 7.53192V7.59931C86.1071 11.0922 83.1631 13.3765 78.8141 13.3765H73.328V14.9885H78.7137C83.5979 14.9885 87.8469 12.4357 87.8469 7.49837V7.43129C87.8469 2.89674 84.3006 0.243257 79.1484 0.243257" fill="black"/>
<path d="M79.1486 0.243103H65.2873V23.7553H67.0267V14.9885H67.0395V13.3767H67.0269V1.85566H79.015C83.2302 1.85566 86.1071 3.80365 86.1071 7.53192V7.59931C86.1071 11.0922 83.1631 13.3765 78.8141 13.3765H73.328V14.9885H78.7137C83.5979 14.9885 87.8469 12.4357 87.8469 7.49837V7.43129C87.8469 2.89674 84.3006 0.243257 79.1484 0.243257" fill="white"/>
<path d="M55.1669 13.3767L47.046 0.15387H45.3732L30.9079 23.834H32.7145L46.1764 2.06863L53.1933 13.3765" fill="black"/>
<path d="M55.1669 13.3767L47.046 0.15387H45.3732L30.9079 23.834H32.7145L46.1764 2.06863L53.1933 13.3765L55.1669 13.3767Z" fill="white"/>
<path d="M57.8389 17.7274H55.8931L59.6826 23.8338H61.5891" fill="black"/>
<path d="M57.8389 17.7274H55.8931L59.6826 23.8338H61.5891L57.8389 17.7274Z" fill="white"/>
</g>
<defs>
<clipPath id="clip0_40_18">
<rect width="88" height="24" fill="white"/>
</clipPath>
</defs>
</svg>
